HIERARCHY
ROOT Hips
{
	OFFSET 44.115601 -19.285416 95.983299
	CHANNELS 6 Xposition Yposition Zposition Xrotation Yrotation Zrotation
	JOINT spine
	{
		OFFSET 0.000000 -0.467661 8.132492
		CHANNELS 3 Xrotation Yrotation Zrotation
		JOINT spine1
		{
			OFFSET 0.000000 -0.000002 10.349800
			CHANNELS 3 Xrotation Yrotation Zrotation
			JOINT spine2
			{
				OFFSET 0.000000 -0.000002 9.916992
				CHANNELS 3 Xrotation Yrotation Zrotation
				JOINT Neck
				{
					OFFSET 0.000000 -1.213903 25.460999
					CHANNELS 3 Xrotation Yrotation Zrotation
					JOINT Head
					{
						OFFSET 0.000000 0.000000 7.692444
						CHANNELS 3 Xrotation Yrotation Zrotation
						End Site
						{
							OFFSET 0.000000 6.140626 18.619995
						}
					}
				}
				JOINT RightShoulder
				{
					OFFSET -4.175751 0.581444 10.709595
					CHANNELS 3 Xrotation Yrotation Zrotation
					JOINT RightArm
					{
						OFFSET 0.000000 -0.000002 14.046600
						CHANNELS 3 Xrotation Yrotation Zrotation
						JOINT RightArmRoll
						{
							OFFSET 0.000000 0.000000 7.090973
							CHANNELS 3 Xrotation Yrotation Zrotation
							JOINT RightForeArm
							{
								OFFSET 0.000000 -0.000004 20.653503
								CHANNELS 3 Xrotation Yrotation Zrotation
								JOINT RightForeArmRoll
								{
									OFFSET 0.000000 -0.000002 7.957184
									CHANNELS 3 Xrotation Yrotation Zrotation
									JOINT RightHand
									{
										OFFSET 0.000000 -0.000002 15.968307
										CHANNELS 3 Xrotation Yrotation Zrotation
										End Site
										{
											OFFSET 0.000000 0.000000 0.100006
										}
									}
								}
							}
						}
					}
				}
				JOINT LeftShoulder
				{
					OFFSET 4.175751 0.581444 10.709595
					CHANNELS 3 Xrotation Yrotation Zrotation
					JOINT LeftArm
					{
						OFFSET 0.000000 -0.000002 14.046600
						CHANNELS 3 Xrotation Yrotation Zrotation
						JOINT LeftArmRoll
						{
							OFFSET 0.000000 0.000000 7.090973
							CHANNELS 3 Xrotation Yrotation Zrotation
							JOINT LeftForeArm
							{
								OFFSET 0.000000 -0.000004 20.653503
								CHANNELS 3 Xrotation Yrotation Zrotation
								JOINT LeftForeArmRoll
								{
									OFFSET 0.000000 -0.000002 7.957184
									CHANNELS 3 Xrotation Yrotation Zrotation
									JOINT LeftHand
									{
										OFFSET 0.000000 -0.000002 15.968307
										CHANNELS 3 Xrotation Yrotation Zrotation
										End Site
										{
											OFFSET 0.000000 0.000000 0.100006
										}
									}
								}
							}
						}
					}
				}
			}
		}
	}
	JOINT RightUpLeg
	{
		OFFSET -7.208340 1.108841 -1.321823
		CHANNELS 3 Xrotation Yrotation Zrotation
		JOINT RightUpLegRoll
		{
			OFFSET 0.000000 -0.000004 18.723801
			CHANNELS 3 Xrotation Yrotation Zrotation
			JOINT RightLeg
			{
				OFFSET 0.000000 0.000004 -23.186600
				CHANNELS 3 Xrotation Yrotation Zrotation
				JOINT RightLegRoll
				{
					OFFSET 0.000000 -0.000004 23.262398
					CHANNELS 3 Xrotation Yrotation Zrotation
					JOINT RightFoot
					{
						OFFSET 0.000000 -0.000002 19.362106
						CHANNELS 3 Xrotation Yrotation Zrotation
						JOINT RightToeBase
						{
							OFFSET 0.000000 -0.000004 16.185699
							CHANNELS 3 Xrotation Yrotation Zrotation
							End Site
							{
								OFFSET 0.006859 0.903522 7.838623
							}
						}
					}
				}
			}
		}
	}
	JOINT LeftUpLeg
	{
		OFFSET 7.208340 1.108841 -1.321823
		CHANNELS 3 Xrotation Yrotation Zrotation
		JOINT LeftUpLegRoll
		{
			OFFSET 0.000000 -0.000004 18.723900
			CHANNELS 3 Xrotation Yrotation Zrotation
			JOINT LeftLeg
			{
				OFFSET 0.000000 -0.000004 23.186493
				CHANNELS 3 Xrotation Yrotation Zrotation
				JOINT LeftLegRoll
				{
					OFFSET 0.000000 -0.000004 23.477509
					CHANNELS 3 Xrotation Yrotation Zrotation
					JOINT LeftFoot
					{
						OFFSET 0.000000 -0.000002 19.147003
						CHANNELS 3 Xrotation Yrotation Zrotation
						JOINT LeftToeBase
						{
							OFFSET 0.000000 -0.000004 16.185699
							CHANNELS 3 Xrotation Yrotation Zrotation
							End Site
							{
								OFFSET -0.030746 0.903522 7.838623
							}
						}
					}
				}
			}
		}
	}
}
MOTION
Frames: 9
Frame Time: 0.041667
60.860397 -16.564320 96.696594 -0.397872 2.402363 46.490174 -1.274419 0.324733 1.042213 1.448479 0.636375 2.098887 3.093146 0.661464 2.091104 -9.661931 4.374082 6.210566 -6.376219 -4.418401 5.415463 -15.302086 -35.900390 -17.447425 -77.853788 -224.221027 -61.358130 -0.000003 0.000003 -0.000007 41.816877 11.084572 -2.514837 0.000007 0.000001 -3.000732 -5.000193 -7.999264 0.000086 -37.128550 53.516219 44.541474 -62.572770 129.333880 55.505331 0.000003 -0.000005 0.000007 1.760342 7.986568 0.841443 -0.000003 -0.000004 3.007520 -5.000211 7.998893 -0.000142 -2.768832 -172.628523 5.887279 -179.999991 0.000005 -1.099997 153.409600 -3.238874 -1.652933 -0.000002 0.000006 0.394636 71.455171 6.844656 2.081872 31.469537 -6.595887 7.613188 -8.085076 179.749515 5.378234 -0.000005 -0.000005 -0.932774 -7.421327 -1.705501 0.118708 0.000003 0.000000 0.167644 66.300025 -6.982010 -2.086317 25.456957 7.355613 -0.000512 
60.864895 -16.597820 96.700996 -0.409485 2.423899 46.617021 -1.275339 0.325637 1.044161 1.446610 0.638135 2.103274 3.091277 0.663278 2.095471 -9.710289 4.473527 6.194995 -6.379320 -4.554564 5.379853 -15.302136 -35.620048 -17.438105 -77.793368 -224.365813 -61.858933 -0.000003 0.000004 -0.000006 40.815418 11.327238 -2.517391 0.000005 0.000001 -3.000719 -5.000194 -7.999264 0.000088 -37.238195 53.572896 44.666538 -62.517848 129.273174 55.475210 0.000001 -0.000005 0.000007 1.897679 7.999148 0.832949 -0.000001 -0.000002 3.007579 -5.000214 7.998893 -0.000143 -2.748102 -172.667346 5.862903 -179.999991 0.000004 -1.100000 153.461442 -3.230479 -1.647099 -0.000003 0.000004 0.394418 71.468729 6.843706 2.083586 31.415086 -6.605094 7.588082 -8.081769 179.728724 5.378676 -0.000005 -0.000004 -0.933276 -7.409308 -1.722387 0.117832 0.000003 0.000000 0.168178 66.298338 -6.981221 -2.088358 25.456957 7.355607 -0.000510 
60.817696 -16.599512 96.697098 -0.419568 2.441595 46.744175 -1.276082 0.327557 1.046237 1.445080 0.641934 2.107774 3.089741 0.667130 2.099928 -9.759061 4.568617 6.179906 -6.378250 -4.687060 5.345569 -15.303488 -35.345846 -17.430660 -77.715347 -224.511665 -62.358329 -0.000005 0.000002 -0.000009 39.825228 11.560085 -2.509037 0.000007 -0.000000 -3.000710 -5.000197 -7.999262 0.000087 -37.344913 53.629512 44.787992 -62.463350 129.211524 55.454979 0.000001 -0.000004 0.000007 2.026032 8.017533 0.823933 -0.000000 -0.000002 3.007601 -5.000210 7.998891 -0.000142 -2.728697 -172.700213 5.839649 -179.999991 0.000005 -1.099997 153.505250 -3.219166 -1.642378 -0.000003 0.000001 0.394545 71.484637 6.842773 2.085154 31.360141 -6.614483 7.561407 -8.080980 179.712878 5.382138 -0.000005 -0.000004 -0.933724 -7.400929 -1.739347 0.116992 0.000003 0.000000 0.168657 66.298597 -6.980628 -2.089715 25.456952 7.355616 -0.000512 
60.836800 -16.640919 96.703003 -0.427803 2.454833 46.871927 -1.276581 0.330695 1.048511 1.444002 0.648172 2.112474 3.088664 0.673423 2.104551 -9.808625 4.658702 6.165149 -6.372616 -4.815227 5.312633 -15.306264 -35.078588 -17.425353 -77.618188 -224.658937 -62.853095 -0.000003 0.000001 -0.000010 38.846499 11.782746 -2.488894 0.000006 -0.000002 -3.000699 -5.000196 -7.999263 0.000085 -37.448401 53.686199 44.905666 -62.412172 129.148659 55.449501 0.000000 -0.000005 0.000007 2.143434 8.042504 0.814303 -0.000002 -0.000002 3.007592 -5.000212 7.998893 -0.000141 -2.710738 -172.727056 5.817852 -179.999991 0.000005 -1.099998 153.539716 -3.204903 -1.636891 -0.000004 0.000003 0.395048 71.503427 6.841787 2.086441 31.304809 -6.624042 7.532978 -8.083108 179.702974 5.389129 -0.000004 -0.000005 -0.934107 -7.396694 -1.756341 0.116199 0.000003 0.000000 0.169060 66.300844 -6.980444 -2.090030 25.456953 7.355608 -0.000512 
60.879898 -16.688519 96.708595 -0.434463 2.463982 47.000181 -1.276983 0.334989 1.050948 1.443124 0.656721 2.117295 3.087778 0.682031 2.109270 -9.857919 4.741337 6.150762 -6.361969 -4.938036 5.281787 -15.313207 -34.817289 -17.426215 -77.508864 -224.805636 -63.352177 -0.000005 0.000003 -0.000007 37.876903 11.995097 -2.463704 0.000005 -0.000000 -3.000689 -5.000198 -7.999263 0.000087 -37.548125 53.742271 45.018665 -62.359641 129.083212 55.455764 0.000002 -0.000004 0.000007 2.251982 8.075135 0.803832 -0.000003 -0.000003 3.007560 -5.000215 7.998890 -0.000142 -2.694564 -172.747956 5.797094 -179.999991 0.000005 -1.100000 153.564045 -3.187657 -1.631637 -0.000001 0.000004 0.395978 71.525304 6.840795 2.087533 31.247275 -6.633962 7.503098 -8.088723 179.698029 5.399771 -0.000005 -0.000004 -0.934422 -7.397103 -1.773704 0.115455 0.000003 0.000000 0.169412 66.305250 -6.980492 -2.089664 25.456957 7.355613 -0.000509 
60.875198 -16.713516 96.712502 -0.440140 2.470107 47.128671 -1.277403 0.340160 1.053497 1.442158 0.667024 2.122149 3.086815 0.692389 2.114000 -9.905738 4.815514 6.136884 -6.346432 -5.055500 5.253605 -15.326000 -34.560180 -17.435784 -77.397668 -224.949808 -63.859079 -0.000004 0.000003 -0.000008 36.914102 12.197545 -2.440181 0.000004 0.000000 -3.000678 -5.000200 -7.999264 0.000085 -37.643286 53.797374 45.126189 -62.301926 129.013039 55.469735 -0.000000 -0.000004 0.000007 2.355553 8.115298 0.792415 0.000000 -0.000003 3.007519 -5.000212 7.998892 -0.000143 -2.680306 -172.763843 5.776668 -179.999991 0.000006 -1.099994 153.578743 -3.166554 -1.626153 -0.000002 0.000005 0.397305 71.550487 6.839730 2.088315 31.186043 -6.644357 7.472176 -8.097821 179.698042 5.413320 -0.000004 -0.000004 -0.934706 -7.401949 -1.791743 0.114762 0.000003 0.000000 0.169726 66.311315 -6.980513 -2.089279 25.456959 7.355610 -0.000513 
60.890495 -16.753620 96.719597 -0.444992 2.473565 47.257208 -1.277873 0.346088 1.056116 1.441101 0.678836 2.126993 3.085764 0.704261 2.118699 -9.952212 4.882694 6.123598 -6.326457 -5.168538 5.227858 -15.343192 -34.307036 -17.452011 -77.281535 -225.091083 -64.373017 -0.000004 0.000003 -0.000010 35.959085 12.390168 -2.417707 0.000004 0.000001 -3.000669 -5.000198 -7.999262 0.000093 -37.734466 53.851742 45.228956 -62.240782 128.938358 55.491483 -0.000001 -0.000005 0.000006 2.454752 8.161975 0.780146 -0.000004 -0.000003 3.007488 -5.000212 7.998892 -0.000142 -2.667751 -172.776766 5.756572 -179.999991 0.000006 -1.099998 153.585109 -3.142523 -1.620812 -0.000002 0.000006 0.398968 71.578238 6.838697 2.088846 31.121818 -6.655149 7.440223 -8.109858 179.702004 5.429433 -0.000004 -0.000004 -0.934958 -7.410651 -1.810341 0.114125 0.000003 0.000000 0.169999 66.318753 -6.980583 -2.088721 25.456952 7.355616 -0.000522 
60.897400 -16.784718 96.721092 -0.449149 2.474674 47.385595 -1.278353 0.352647 1.058801 1.439994 0.691917 2.131819 3.084652 0.717398 2.123368 -9.997473 4.944331 6.110961 -6.302503 -5.278032 5.204266 -15.363467 -34.057628 -17.473012 -77.159322 -225.229408 -64.894495 -0.000005 0.000003 -0.000008 35.012444 12.572747 -2.395508 0.000005 0.000001 -3.000659 -5.000198 -7.999265 0.000087 -37.822128 53.905649 45.327386 -62.176462 128.859442 55.519316 -0.000000 -0.000005 0.000006 2.550200 8.214140 0.767121 -0.000001 -0.000002 3.007451 -5.000213 7.998891 -0.000144 -2.656668 -172.785672 5.736689 -179.999991 0.000005 -1.099000 153.584317 -3.116520 -1.614972 -0.000001 0.000004 0.400942 71.608414 6.837556 2.089310 31.055176 -6.666255 7.407267 -8.124334 179.708957 5.447768 -0.000004 -0.000005 -0.935189 -7.422636 -1.829391 0.113519 0.000003 0.000000 0.170232 66.327434 -6.980616 -2.088275 25.456950 7.355617 -0.000523 
60.910896 -16.809521 96.726997 -0.452764 2.473772 47.513736 -1.278853 0.359720 1.061509 1.438839 0.706021 2.136584 3.083501 0.731558 2.127966 -10.041634 5.001878 6.099032 -6.275018 -5.384888 5.182615 -15.385652 -33.811728 -17.496947 -77.030949 -225.364837 -65.419566 -0.000004 0.000003 -0.000008 34.075015 12.745013 -2.372827 0.000009 0.000002 -3.000646 -5.000196 -7.999263 0.000088 -37.906973 53.959376 45.422308 -62.109635 128.776933 55.551940 -0.000001 -0.000005 0.000007 2.642506 8.270787 0.753449 -0.000000 -0.000003 3.007421 -5.000215 7.998892 -0.000143 -2.646828 -172.792612 5.717040 -179.999991 0.000005 -1.099000 153.577582 -3.087655 -1.610122 -0.000004 0.000003 0.403178 71.640331 6.836446 2.089573 30.986441 -6.677637 7.373273 -8.140707 179.717864 5.467995 -0.000004 -0.000004 -0.935392 -7.437353 -1.848805 0.112948 0.000003 0.000000 0.170447 66.337290 -6.980671 -2.087558 25.456952 7.355613 -0.000520 
